<svg id="Layer_1" data-name="Layer 1" xmlns="http://www.w3.org/2000/svg" viewBox="0 0 558 372"><defs><style>.cls-1{fill:#fff;}.cls-2{fill:#eee;isolation:isolate;}.cls-3{fill:#744c3a;}.cls-4{fill:#fed7d2;}.cls-5{fill:#f1998e;}.cls-6{fill:#3d281e;}.cls-7{fill:#99644c;}.cls-8{fill:#333;}.cls-9{fill:#156a41;}.cls-10{fill:#10462d;}.cls-11{fill:#cbcbcb;}.cls-12{fill:#672a16;}.cls-13{fill:#010101;}.cls-14{fill:#05a357;}.cls-15{fill:#afafaf;}</style></defs><rect class="cls-1" width="558" height="372"/><path class="cls-2" d="M271.65,238.8a77.31,77.31,0,0,1-55-22.8l-21-21a77.82,77.82,0,0,0-55-22.8L0,172V372H558V238.8Z"/><path class="cls-3" d="M197.63,318l-9.24,3.33a4.91,4.91,0,0,0-2,1.37L179.11,331a.89.89,0,0,0,.18,1.33l1.2.78a4.09,4.09,0,0,0,5.62-1.11l1.44-2.1,2.1-.68a10.46,10.46,0,0,0,6.87-7.16Z"/><path class="cls-3" d="M211.92,310.7l-6.79,5.71a4.36,4.36,0,0,0-1.27,1.79l-3.56,9.28a.8.8,0,0,0,.57,1.07l1.26.29a3.69,3.69,0,0,0,4.41-2.7l.56-2.23,3.35-2.63a5.24,5.24,0,0,0,2-4.55Z"/><path class="cls-4" d="M487.09,371.76,511.7,280.1a32.66,32.66,0,0,0,.5-14.9,33,33,0,0,0-6.2-13.6,34.09,34.09,0,0,0-11.5-9.5,33.2,33.2,0,0,0-14.5-3.4H450.9L415.17,371.76Z"/><path class="cls-5" d="M452.93,371.76l24.6-91.66a32.66,32.66,0,0,0,.5-14.9,33,33,0,0,0-6.2-13.6,34.09,34.09,0,0,0-11.5-9.5,33.65,33.65,0,0,0-9.54-3L415.17,371.76Z"/><circle cx="434.03" cy="137.16" r="38.51"/><path class="cls-6" d="M428.88,103.27a42,42,0,0,1,42,42c0,1.27-.07,2.52-.18,3.76a38.51,38.51,0,0,0-62.82-40.09A41.81,41.81,0,0,1,428.88,103.27Z"/><path class="cls-7" d="M255.4,354.39l131.6,2.5,41.9-27.2,9-82.5c-2.8,1.8-53.3,60.2-53.3,60.2l-116.2,25.9a17.17,17.17,0,0,1-9-.3"/><path class="cls-7" d="M259.4,333l-23.81-25a8.64,8.64,0,0,0-8-2.51l-25.88,5.4a5.43,5.43,0,0,0-4.06,3.63l-6.34,19.27a.9.9,0,0,0,.85,1.18h0a6.41,6.41,0,0,0,6.31-5.26l.25-1.39.91-.77a12,12,0,0,0,4.22-8.91h0l5.45.28a20.26,20.26,0,0,0,7.65-1.09h0a4.25,4.25,0,0,1,5.39,2.58l3.19,8.86a5.9,5.9,0,0,1-2.81,7.21h0a5.84,5.84,0,0,1-3.6.61l-8.75-1.28a8.64,8.64,0,0,0-8.65,4.05h0a1.25,1.25,0,0,0,.64,1.84l23,9A48.2,48.2,0,0,0,241.64,354l13.76.35Z"/><path class="cls-3" d="M384.6,307.39,298.45,326.6a33.61,33.61,0,0,0-2.75,16,31,31,0,0,0,4.39,12.65L387,356.89l41.9-27.2,9-82.5C435.1,249,384.6,307.39,384.6,307.39Z"/><path class="cls-8" d="M281.2,181l-5.6,10.5a4.66,4.66,0,0,0-.6,2,5,5,0,0,0,.2,2.1,6.92,6.92,0,0,0,1,1.9,5.79,5.79,0,0,0,1.7,1.4l31,16.6,32-59.5a3.18,3.18,0,0,0,.3-.9,2.77,2.77,0,0,0-.1-.9,2,2,0,0,0-.4-.8c-.2-.2-.4-.5-.7-.6l-31.6-16.9a3.18,3.18,0,0,0-.9-.3,2.77,2.77,0,0,0-.9.1,2,2,0,0,0-.8.4c-.2.2-.5.4-.6.7l-6.8,12.8a18.8,18.8,0,0,0-7.5-5.2,19.88,19.88,0,0,0-9-1.2,18.23,18.23,0,0,0-8.5,3.1,19.64,19.64,0,0,0-6.1,6.7,19.22,19.22,0,0,0-2.3,8.8,19.34,19.34,0,0,0,8,15.8A17.11,17.11,0,0,0,281.2,181Zm-11.7-18.9a14.43,14.43,0,0,1,2.8-8.5,14.16,14.16,0,0,1,7.3-5.2,14.58,14.58,0,0,1,9,.2,13.82,13.82,0,0,1,7.1,5.5l-12,22.2a14.34,14.34,0,0,1-14.2-14.2Z"/><path class="cls-9" d="M427.58,371.76l32-107.74a107.28,107.28,0,0,0-29.05-108.47h0L407.66,173.5l-6.16,1.3-20.8,12-55,62.5-1.6,110.3,88.71,12.16Z"/><path class="cls-10" d="M337.83,354.63h15.41A26.46,26.46,0,0,0,376.36,341l17.72-31.8a76.66,76.66,0,0,1,6.38-9.68l16.24-21,32.51-49.46-78.41,40Z"/><path d="M430.21,371.76l3-16.46-99-.7a123.24,123.24,0,0,1-19.81,17.16Z"/><path class="cls-7" d="M289.4,185.9l5.5-6.3-10.7-9.4-3.3,3.7a3.46,3.46,0,0,0-.7,1.2,5.85,5.85,0,0,0-.2,1.3,2.77,2.77,0,0,0,.3,1.3,4.44,4.44,0,0,0,.8,1.1Z"/><path class="cls-7" d="M286.2,193.8l5.5-6.3L281,178l-2.6,3a3.77,3.77,0,0,0-.9,1.5,3.21,3.21,0,0,0-.2,1.7,5.26,5.26,0,0,0,.4,1.7,4.86,4.86,0,0,0,1.1,1.4Z"/><path class="cls-8" d="M0,353.9H347.14a7.48,7.48,0,0,1,7.48,7.48V372a0,0,0,0,1,0,0H0a0,0,0,0,1,0,0V353.9A0,0,0,0,1,0,353.9Z"/><path class="cls-11" d="M112.9,27.2l-9.1,2.05a8,8,0,0,0-6,9.55l50.67,222.55a8,8,0,0,0,9.51,6l9.25-2.07Z"/><path class="cls-11" d="M93,348.3H79.6V162.4a20.83,20.83,0,0,1,20.9-20.9h37v13.3h-37a7.51,7.51,0,0,0-7.5,7.5Z"/><path class="cls-11" d="M131.7,344.2H29.1v9.7H131.7Z"/><path class="cls-11" d="M208.15,346.1H142v7.8h66.3v-7.8Z"/><path class="cls-7" d="M280,188.5l7.9-14.2-2.6-2.3a2.73,2.73,0,0,1-.9-1.2,3.71,3.71,0,0,1-.4-1.4,3.89,3.89,0,0,1,.2-1.5,5.39,5.39,0,0,1,.7-1.3l1.3-1.5a1.56,1.56,0,0,1,.8-.6,2.93,2.93,0,0,1,1-.3,3.4,3.4,0,0,1,1,.1,4.05,4.05,0,0,1,.9.5h.1a2.69,2.69,0,0,0,1.5.5,2,2,0,0,0,1.5-.6,2.1,2.1,0,0,0,.7-1.4,2.28,2.28,0,0,0-.4-1.6l-2.2-2.7c-1-1.2-1.6-4-.6-5.2a3.92,3.92,0,0,1,1-.8,2.66,2.66,0,0,1,1.2-.3,3,3,0,0,1,1.3.2,2.59,2.59,0,0,1,1.1.7l14.8,13.5-4.8-13.6a10.23,10.23,0,0,1-.5-3.9,9.36,9.36,0,0,1,1.1-3.7l.9-1.7a2.34,2.34,0,0,1,.7-.7,2.92,2.92,0,0,1,.9-.2,1.61,1.61,0,0,1,.9.3,1.56,1.56,0,0,1,.6.8l3,8.3,11,20.2a115.18,115.18,0,0,1,8.9,37l6,80.8-12.6,8-7.3,15L312.06,358c-13.57-19-8.66-55.24-7.66-86.44.5-15.7,1.3-34.1,1.9-45.1a25.69,25.69,0,0,0-5.9-18.4Z"/><path class="cls-7" d="M336.1,286.1a257.86,257.86,0,0,0,31.7-45.8c9-16.3,16-33.4,27.7-48.2,7.3-9,17.1-14.4,28.7-14.2,10.3.2,21.2,4.5,26.9,13.5s5.7,21.5-1,30L367,325.8c-35.7,45.2-48.4,36.5-53.2,34.1-1.3-.7-2.6-3-3.7-6.2a49.07,49.07,0,0,1-2.3-22.5,48.52,48.52,0,0,1,8-21.1l2.8-4.1Z"/><path d="M322.08,69.77,316.79,83a20.45,20.45,0,0,0,11.59,26.65l1.1.43-2.69-30.74Z"/><path class="cls-7" d="M387.63,186.3l-5.83-27.4-15.53,7.91a5.86,5.86,0,0,1-8.12-3.08l-.45-1.16a11.25,11.25,0,0,0-7.41-6.72l-1-.3,1.07-4.77-8-2.52-.73-7.26h-8.85a3.24,3.24,0,0,1-3.22-3.64l2.06-16.7a11.87,11.87,0,0,0-.54-5.29l-8-23.52a39.79,39.79,0,0,1-1-22.08h0a55.29,55.29,0,0,1,53.75-42.3h0a55.28,55.28,0,0,1,47.62,27.19l.62,1.06a55.32,55.32,0,0,1,7.68,28.13h0a55.3,55.3,0,0,1-3.93,20.49L422.5,117.7a18.54,18.54,0,0,0-.14,13.36l17.54,52.35Z"/><path class="cls-3" d="M387.63,186.3l-5.83-27.4h0a65,65,0,0,0,10.31-24.72l1.34-7.05Z"/><path class="cls-12" d="M347.53,154.32a2.63,2.63,0,0,0,1.72,1.23l1.28-.73a7.74,7.74,0,0,0,3.76-5.18l.89-4.4-7.76,4.68.75.93A2.93,2.93,0,0,0,347.53,154.32Z"/><path class="cls-12" d="M344.05,150.52l3.42,1.23,5.71-3.48a4,4,0,0,0,2-3l.22-1.75-2.1,1.2a8.32,8.32,0,0,1-4.58,1.07l-2.2-.13h0a4.07,4.07,0,0,0-3,1.1l-.42.4-.89.29.07.76A2.79,2.79,0,0,0,344.05,150.52Z"/><path d="M398.56,32.12a50.71,50.71,0,0,1,24.05,21.12l1.46,2.48a55.37,55.37,0,0,1,3.75,48.62L422.5,117.7a18.55,18.55,0,0,0-1.2,8.8H410a11.4,11.4,0,0,1-9.71-5.43h0c-3.19-4.73-.86-10.6.57-16.12L403.38,95a8.93,8.93,0,0,0-4-10,8.68,8.68,0,0,0-12.71,5.35l-1.93,7.36h-5.11a16.5,16.5,0,0,1-9.92-3.31L354.64,83.1a28.42,28.42,0,0,0-17-5.68h-9.49a6.2,6.2,0,0,1-6-7.65h0C329.82,37.76,364.54,17.94,398.56,32.12Z"/><path class="cls-13" d="M332.13,101.87h0A12,12,0,0,1,342,99.32l3.35.77c.45.11.31.78-.21.84l-2.07.18a16.12,16.12,0,0,0-8.9,4l-1.86,1.68a3,3,0,0,1-3.88.23l.05-.22A11.53,11.53,0,0,1,332.13,101.87Z"/><path class="cls-13" d="M345.64,109.51s-5.31-3.29-13.65,2.81c1.44,1.48,3.95.47,3.95.47,2.88-2,5.87-2.58,9.41-3.23Z"/><ellipse class="cls-13" cx="337.83" cy="113.13" rx="1.35" ry="2.18" transform="translate(0.65 228.19) rotate(-37.36)"/><path class="cls-7" d="M401.56,95.62l-3.49,14.1a6.54,6.54,0,0,1-6.53,5l-2.43-.07-3.29-9.71Z"/><circle class="cls-1" cx="392.35" cy="111.84" r="1.54"/><path class="cls-6" d="M392.51,36.36a59.39,59.39,0,0,1,28.21,24.76l1.71,2.9A64.87,64.87,0,0,1,431.2,91.6a54.17,54.17,0,0,0,.55-7.75,55.32,55.32,0,0,0-7.68-28.13l-1.46-2.48a50.71,50.71,0,0,0-24.05-21.12C382.94,25.61,367.19,26.28,354,32A67.48,67.48,0,0,1,392.51,36.36Z"/><path class="cls-3" d="M396.87,90.24a4.73,4.73,0,0,0-1.94-.83,4.67,4.67,0,0,0-2.1.12,4.6,4.6,0,0,0-1.82,1,1,1,0,0,0-.16.16c3.61-.09,5.79,6.47,3.31,7.24-5.12,1.59-.74,5.16-2.75,6a1.51,1.51,0,0,0-.92.95,1.61,1.61,0,0,0,2.4,1.81,3.9,3.9,0,0,0,1.63-1.93,7.62,7.62,0,0,1,2.58-3.5,5.52,5.52,0,0,0,2.25-3.64,9.32,9.32,0,0,0-1.11-5.78A4.59,4.59,0,0,0,396.87,90.24Z"/><path class="cls-9" d="M380.61,187.07l5.8-11.66a17,17,0,0,1,9.84-8.53l34.32-11.33,12.82,31.52Z"/><path class="cls-9" d="M373.71,182.74H426a33.63,33.63,0,0,1,33.63,33.63v0A33.63,33.63,0,0,1,426,250H373.71a0,0,0,0,1,0,0V182.74A0,0,0,0,1,373.71,182.74Z" transform="translate(-6.42 419.92) rotate(-53.13)"/><polygon class="cls-10" points="37.51 261.78 36.09 260.36 48.91 247.55 58.09 256.74 56.68 258.15 48.91 250.38 37.51 261.78"/><rect class="cls-10" x="43.61" y="238.59" width="2" height="12.15" transform="translate(-159.94 103.21) rotate(-45)"/><path class="cls-14" d="M30.64,239.94a6.3,6.3,0,0,0,2.1,3.8,6.85,6.85,0,0,0,4.1,1.7l9.6.6.1-7.2a9.34,9.34,0,0,0-2.1-6,10.69,10.69,0,0,0-5.5-3.5l-10.5-2.4Z"/><rect class="cls-10" x="55.76" y="268.79" width="22.39" height="2" transform="translate(-171.16 126.36) rotate(-45)"/><path class="cls-9" d="M25.87,254.75A8.75,8.75,0,0,0,20.42,257a8.88,8.88,0,0,0-2.85,5.21l-2,12.57,9.8,1.12a13.13,13.13,0,0,0,13.94-8.68L44,253.8Z"/><rect class="cls-10" x="69.2" y="239.94" width="2" height="22.75"/><path class="cls-9" d="M76.75,254.42a8.89,8.89,0,0,0-5.5,1.6,8.45,8.45,0,0,0-3.3,4.6l-3.3,11.6,9.4,2a13.17,13.17,0,0,0,8.5-.9,12.29,12.29,0,0,0,6-5.9l6-12.2Z"/><path class="cls-10" d="M79.87,279.58h-21v-2h21a15.19,15.19,0,0,0,10.81-4.48l22.49-22.49,1.41,1.41L92.1,274.51A17.18,17.18,0,0,1,79.87,279.58Z"/><path class="cls-14" d="M116.57,231.25A20.15,20.15,0,0,0,99.3,254.69l1.67,9.54,35.55-35.56Z"/><path class="cls-9" d="M101,264.23l9.54,1.66a20.14,20.14,0,0,0,23.43-17.26l2.58-20Z"/><path class="cls-14" d="M61.5,259.7V271l.2,18.7-10-12.9c-3-3.9-6.7-8.7-5.8-13.9.5-3.1,2.7-5.6,5.1-7.6.8-.6,10.2-6.9,10.1-7.2C62.2,251.5,61.5,256.1,61.5,259.7Z"/><path class="cls-11" d="M0,318.9V289.8A5.46,5.46,0,0,1,1.6,286a5.52,5.52,0,0,1,3.9-1.6H64.7a5.52,5.52,0,0,1,3.9,1.6,5.46,5.46,0,0,1,1.6,3.8v29.1a34.36,34.36,0,0,1-10.3,24.5,35.5,35.5,0,0,1-49.6,0A34.36,34.36,0,0,1,0,318.9Z"/><path class="cls-10" d="M99.46,290l-1.41-1.41,1.83-1.83a4.45,4.45,0,0,0,0-6.3l-7.59-7.59,1.42-1.41,7.58,7.59a6.45,6.45,0,0,1,0,9.12Z"/><path class="cls-9" d="M94.06,299.57a5.88,5.88,0,0,0,3.6-1.3,6,6,0,0,0,2-3.3l1.8-8.1-6.3-1.1a8.45,8.45,0,0,0-5.6,1,8.65,8.65,0,0,0-3.8,4.2l-3.5,8.5Z"/><path class="cls-10" d="M111.21,308.91h-2V293.6a9.08,9.08,0,0,0-2.67-6.45l-6.66-6.66,1.41-1.41,6.66,6.66a11,11,0,0,1,3.26,7.86Z"/><path class="cls-14" d="M118.62,317.65a8.38,8.38,0,0,0,1.7-5.5,8.58,8.58,0,0,0-2.1-5.3l-8.2-9.3-7,6.6a12.74,12.74,0,0,0-3.9,7.5,12.28,12.28,0,0,0,1.7,8.2l7.2,11.8Z"/><rect class="cls-10" x="105.09" y="262.65" width="2" height="15.46" transform="translate(-160.12 154.2) rotate(-45)"/><path class="cls-9" d="M136.12,290.41l.4-.1-26.6-17C111.72,286.81,122.82,294.11,136.12,290.41Z"/><path class="cls-10" d="M70.58,237.2,64,230.58A12.1,12.1,0,0,1,60.39,222V201h2V222a10.18,10.18,0,0,0,3,7.22L72,235.78Z"/><path class="cls-14" d="M68.29,196.19l-6.9-12.61-6.9,12.61A8.53,8.53,0,0,0,56,206.33l5.44,5.45,5.45-5.45A8.53,8.53,0,0,0,68.29,196.19Z"/><path class="cls-9" d="M73.3,246.79l1-.7a14.85,14.85,0,0,0,3.22-21.21l-9.06-11.75v31.14A3.08,3.08,0,0,0,73.3,246.79Z"/><polygon class="cls-3" points="326.48 297.04 336.84 266.98 338.09 283.78 326.48 297.04"/><polygon class="cls-15" points="121.15 141.5 124.18 154.8 113.28 154.8 113.28 141.5 121.15 141.5"/><rect class="cls-15" x="79.6" y="339.09" width="13.4" height="5.21"/><path class="cls-7" d="M381.8,158.9s12.72-7.15,11.65-31.77l-10.17,9.29Z"/></svg>